STARTFONT 2.1
FONT --New York-Regular-R-Normal--12-90-96-96-P-51-APPLE-ROMAN
SIZE 9 96 96
FONTBOUNDINGBOX 9 12 0 -2
METRICSSET 2
STARTPROPERTIES 19
FONT_ASCENT 10
FONT_DESCENT 2
PIXEL_SIZE 12
RESOLUTION_X 96
RESOLUTION_Y 96
POINT_SIZE 90
FACE_NAME "New York Regular 9"
FOUNDRY ""
FAMILY_NAME "New York"
WEIGHT_NAME "Regular"
RELATIVE_WEIGHT 50
SLANT "R"
SPACING "P"
SETWIDTH_NAME "Normal"
RELATIVE_SETWIDTH 50
ADD_STYLE_NAME ""
AVERAGE_WIDTH 51
CHARSET_REGISTRY "APPLE"
CHARSET_ENCODING "ROMAN"
ENDPROPERTIES
CHARS 182
STARTCHAR char00
ENCODING 0
SWIDTH 0 0
DWIDTH 0 0
BBX 0 0 0 -2
VVECTOR 0 -2
SWIDTH1 0 0
DWIDTH1 0 0
BITMAP 
ENDCHAR
STARTCHAR char02
ENCODING 2
SWIDTH 0 0
DWIDTH 0 0
BBX 0 0 0 -2
VVECTOR 0 -2
SWIDTH1 0 0
DWIDTH1 0 0
BITMAP 
ENDCHAR
STARTCHAR char03
ENCODING 3
SWIDTH 0 0
DWIDTH 0 0
BBX 0 0 0 -2
VVECTOR 0 -2
SWIDTH1 0 0
DWIDTH1 0 0
BITMAP 
ENDCHAR
STARTCHAR char04
ENCODING 4
SWIDTH 0 0
DWIDTH 0 0
BBX 0 0 0 -2
VVECTOR 0 -2
SWIDTH1 0 0
DWIDTH1 0 0
BITMAP 
ENDCHAR
STARTCHAR char05
ENCODING 5
SWIDTH 0 0
DWIDTH 0 0
BBX 0 0 0 -2
VVECTOR 0 -2
SWIDTH1 0 0
DWIDTH1 0 0
BITMAP 
ENDCHAR
STARTCHAR char06
ENCODING 6
SWIDTH 0 0
DWIDTH 0 0
BBX 0 0 0 -2
VVECTOR 0 -2
SWIDTH1 0 0
DWIDTH1 0 0
BITMAP 
ENDCHAR
STARTCHAR char08
ENCODING 8
SWIDTH 0 0
DWIDTH 0 0
BBX 0 0 0 -2
VVECTOR 0 -2
SWIDTH1 0 0
DWIDTH1 0 0
BITMAP 
ENDCHAR
STARTCHAR char09
ENCODING 9
SWIDTH 500 0
DWIDTH 6 0
BBX 0 0 6 -2
VVECTOR 6 -2
SWIDTH1 0 0
DWIDTH1 0 0
BITMAP 
ENDCHAR
STARTCHAR char0A
ENCODING 10
SWIDTH 0 0
DWIDTH 0 0
BBX 0 0 0 -2
VVECTOR 0 -2
SWIDTH1 0 0
DWIDTH1 0 0
BITMAP 
ENDCHAR
STARTCHAR char0B
ENCODING 11
SWIDTH 0 0
DWIDTH 0 0
BBX 0 0 0 -2
VVECTOR 0 -2
SWIDTH1 0 0
DWIDTH1 0 0
BITMAP 
ENDCHAR
STARTCHAR char0C
ENCODING 12
SWIDTH 0 0
DWIDTH 0 0
BBX 0 0 0 -2
VVECTOR 0 -2
SWIDTH1 0 0
DWIDTH1 0 0
BITMAP 
ENDCHAR
STARTCHAR char0D
ENCODING 13
SWIDTH 0 0
DWIDTH 0 0
BBX 0 0 0 -2
VVECTOR 0 -2
SWIDTH1 0 0
DWIDTH1 0 0
BITMAP 
ENDCHAR
STARTCHAR char0E
ENCODING 14
SWIDTH 0 0
DWIDTH 0 0
BBX 0 0 0 -2
VVECTOR 0 -2
SWIDTH1 0 0
DWIDTH1 0 0
BITMAP 
ENDCHAR
STARTCHAR space
ENCODING 32
SWIDTH 250 0
DWIDTH 3 0
BBX 0 0 3 -2
VVECTOR 3 -2
SWIDTH1 0 0
DWIDTH1 0 0
BITMAP 
ENDCHAR
STARTCHAR exclam
ENCODING 33
SWIDTH 250 0
DWIDTH 3 0
BBX 1 7 1 0
VVECTOR 2 10
SWIDTH1 0 -1000
DWIDTH1 0 -12
BITMAP 
80
80
80
80
80
00
80
ENDCHAR
STARTCHAR quotedbl
ENCODING 34
SWIDTH 417 0
DWIDTH 5 0
BBX 3 2 1 5
VVECTOR 3 10
SWIDTH1 0 -1000
DWIDTH1 0 -12
BITMAP 
A0
A0
ENDCHAR
STARTCHAR numbersign
ENCODING 35
SWIDTH 500 0
DWIDTH 6 0
BBX 5 5 0 2
VVECTOR 3 10
SWIDTH1 0 -1000
DWIDTH1 0 -12
BITMAP 
50
F8
50
F8
50
ENDCHAR
STARTCHAR dollar
ENCODING 36
SWIDTH 500 0
DWIDTH 6 0
BBX 5 9 0 -1
VVECTOR 3 10
SWIDTH1 0 -1000
DWIDTH1 0 -12
BITMAP 
20
70
A8
60
30
28
A8
70
20
ENDCHAR
STARTCHAR percent
ENCODING 37
SWIDTH 667 0
DWIDTH 8 0
BBX 7 7 0 0
VVECTOR 4 10
SWIDTH1 0 -1000
DWIDTH1 0 -12
BITMAP 
5C
A8
A8
54
1A
2A
24
ENDCHAR
STARTCHAR ampersand
ENCODING 38
SWIDTH 667 0
DWIDTH 8 0
BBX 6 7 1 0
VVECTOR 4 10
SWIDTH1 0 -1000
DWIDTH1 0 -12
BITMAP 
40
A0
A0
40
A8
90
6C
ENDCHAR
STARTCHAR quotesingle
ENCODING 39
SWIDTH 250 0
DWIDTH 3 0
BBX 1 2 1 5
VVECTOR 2 10
SWIDTH1 0 -1000
DWIDTH1 0 -12
BITMAP 
80
80
ENDCHAR
STARTCHAR parenleft
ENCODING 40
SWIDTH 333 0
DWIDTH 4 0
BBX 3 9 0 -1
VVECTOR 2 10
SWIDTH1 0 -1000
DWIDTH1 0 -12
BITMAP 
20
40
40
80
80
80
40
40
20
ENDCHAR
STARTCHAR parenright
ENCODING 41
SWIDTH 333 0
DWIDTH 4 0
BBX 3 9 0 -1
VVECTOR 2 10
SWIDTH1 0 -1000
DWIDTH1 0 -12
BITMAP 
80
40
40
20
20
20
40
40
80
ENDCHAR
STARTCHAR asterisk
ENCODING 42
SWIDTH 333 0
DWIDTH 4 0
BBX 3 4 0 4
VVECTOR 2 10
SWIDTH1 0 -1000
DWIDTH1 0 -12
BITMAP 
40
E0
E0
40
ENDCHAR
STARTCHAR plus
ENCODING 43
SWIDTH 500 0
DWIDTH 6 0
BBX 5 5 0 1
VVECTOR 3 10
SWIDTH1 0 -1000
DWIDTH1 0 -12
BITMAP 
20
20
F8
20
20
ENDCHAR
STARTCHAR comma
ENCODING 44
SWIDTH 250 0
DWIDTH 3 0
BBX 2 2 0 -1
VVECTOR 1 10
SWIDTH1 0 -1000
DWIDTH1 0 -12
BITMAP 
40
80
ENDCHAR
STARTCHAR hyphen
ENCODING 45
SWIDTH 417 0
DWIDTH 5 0
BBX 3 1 1 3
VVECTOR 3 10
SWIDTH1 0 -1000
DWIDTH1 0 -12
BITMAP 
E0
ENDCHAR
STARTCHAR period
ENCODING 46
SWIDTH 250 0
DWIDTH 3 0
BBX 1 1 1 0
VVECTOR 2 10
SWIDTH1 0 -1000
DWIDTH1 0 -12
BITMAP 
80
ENDCHAR
STARTCHAR slash
ENCODING 47
SWIDTH 417 0
DWIDTH 5 0
BBX 4 8 0 0
VVECTOR 2 10
SWIDTH1 0 -1000
DWIDTH1 0 -12
BITMAP 
10
10
20
20
40
40
80
80
ENDCHAR
STARTCHAR zero
ENCODING 48
SWIDTH 500 0
DWIDTH 6 0
BBX 4 7 1 0
VVECTOR 3 10
SWIDTH1 0 -1000
DWIDTH1 0 -12
BITMAP 
60
90
90
90
90
90
60
ENDCHAR
STARTCHAR one
ENCODING 49
SWIDTH 500 0
DWIDTH 6 0
BBX 3 7 1 0
VVECTOR 3 10
SWIDTH1 0 -1000
DWIDTH1 0 -12
BITMAP 
40
C0
40
40
40
40
E0
ENDCHAR
STARTCHAR two
ENCODING 50
SWIDTH 500 0
DWIDTH 6 0
BBX 4 7 1 0
VVECTOR 3 10
SWIDTH1 0 -1000
DWIDTH1 0 -12
BITMAP 
60
90
10
20
40
90
F0
ENDCHAR
STARTCHAR three
ENCODING 51
SWIDTH 500 0
DWIDTH 6 0
BBX 4 8 1 -1
VVECTOR 3 10
SWIDTH1 0 -1000
DWIDTH1 0 -12
BITMAP 
60
90
20
60
10
10
90
60
ENDCHAR
STARTCHAR four
ENCODING 52
SWIDTH 500 0
DWIDTH 6 0
BBX 5 7 0 0
VVECTOR 3 10
SWIDTH1 0 -1000
DWIDTH1 0 -12
BITMAP 
10
30
50
90
F8
10
38
ENDCHAR
STARTCHAR five
ENCODING 53
SWIDTH 500 0
DWIDTH 6 0
BBX 4 8 1 -1
VVECTOR 3 10
SWIDTH1 0 -1000
DWIDTH1 0 -12
BITMAP 
F0
80
E0
10
10
10
20
C0
ENDCHAR
STARTCHAR six
ENCODING 54
SWIDTH 500 0
DWIDTH 6 0
BBX 4 8 1 0
VVECTOR 3 10
SWIDTH1 0 -1000
DWIDTH1 0 -12
BITMAP 
20
40
80
E0
90
90
90
60
ENDCHAR
STARTCHAR seven
ENCODING 55
SWIDTH 500 0
DWIDTH 6 0
BBX 4 7 1 0
VVECTOR 3 10
SWIDTH1 0 -1000
DWIDTH1 0 -12
BITMAP 
F0
90
10
20
40
40
40
ENDCHAR
STARTCHAR eight
ENCODING 56
SWIDTH 500 0
DWIDTH 6 0
BBX 4 7 1 0
VVECTOR 3 10
SWIDTH1 0 -1000
DWIDTH1 0 -12
BITMAP 
60
90
90
60
90
90
60
ENDCHAR
STARTCHAR nine
ENCODING 57
SWIDTH 500 0
DWIDTH 6 0
BBX 4 8 1 -1
VVECTOR 3 10
SWIDTH1 0 -1000
DWIDTH1 0 -12
BITMAP 
60
90
90
90
70
10
20
40
ENDCHAR
STARTCHAR colon
ENCODING 58
SWIDTH 250 0
DWIDTH 3 0
BBX 1 5 1 0
VVECTOR 2 10
SWIDTH1 0 -1000
DWIDTH1 0 -12
BITMAP 
80
00
00
00
80
ENDCHAR
STARTCHAR semicolon
ENCODING 59
SWIDTH 250 0
DWIDTH 3 0
BBX 2 6 0 -1
VVECTOR 1 10
SWIDTH1 0 -1000
DWIDTH1 0 -12
BITMAP 
40
00
00
00
40
80
ENDCHAR
STARTCHAR less
ENCODING 60
SWIDTH 333 0
DWIDTH 4 0
BBX 3 5 0 1
VVECTOR 2 10
SWIDTH1 0 -1000
DWIDTH1 0 -12
BITMAP 
20
40
80
40
20
ENDCHAR
STARTCHAR equal
ENCODING 61
SWIDTH 417 0
DWIDTH 5 0
BBX 4 3 0 2
VVECTOR 2 10
SWIDTH1 0 -1000
DWIDTH1 0 -12
BITMAP 
F0
00
F0
ENDCHAR
STARTCHAR greater
ENCODING 62
SWIDTH 333 0
DWIDTH 4 0
BBX 3 5 0 1
VVECTOR 2 10
SWIDTH1 0 -1000
DWIDTH1 0 -12
BITMAP 
80
40
20
40
80
ENDCHAR
STARTCHAR question
ENCODING 63
SWIDTH 417 0
DWIDTH 5 0
BBX 4 7 0 0
VVECTOR 2 10
SWIDTH1 0 -1000
DWIDTH1 0 -12
BITMAP 
60
90
10
20
40
00
40
ENDCHAR
STARTCHAR at
ENCODING 64
SWIDTH 667 0
DWIDTH 8 0
BBX 7 7 0 -1
VVECTOR 4 10
SWIDTH1 0 -1000
DWIDTH1 0 -12
BITMAP 
38
44
BA
AA
BC
40
3C
ENDCHAR
STARTCHAR A
ENCODING 65
SWIDTH 667 0
DWIDTH 8 0
BBX 7 7 0 0
VVECTOR 4 10
SWIDTH1 0 -1000
DWIDTH1 0 -12
BITMAP 
10
10
28
28
7C
44
EE
ENDCHAR
STARTCHAR B
ENCODING 66
SWIDTH 500 0
DWIDTH 6 0
BBX 5 7 0 0
VVECTOR 3 10
SWIDTH1 0 -1000
DWIDTH1 0 -12
BITMAP 
F0
48
48
70
48
48
F0
ENDCHAR
STARTCHAR C
ENCODING 67
SWIDTH 500 0
DWIDTH 6 0
BBX 5 7 0 0
VVECTOR 3 10
SWIDTH1 0 -1000
DWIDTH1 0 -12
BITMAP 
38
48
80
80
80
48
30
ENDCHAR
STARTCHAR D
ENCODING 68
SWIDTH 583 0
DWIDTH 7 0
BBX 5 7 1 0
VVECTOR 4 10
SWIDTH1 0 -1000
DWIDTH1 0 -12
BITMAP 
F0
48
48
48
48
48
F0
ENDCHAR
STARTCHAR E
ENCODING 69
SWIDTH 500 0
DWIDTH 6 0
BBX 5 7 0 0
VVECTOR 3 10
SWIDTH1 0 -1000
DWIDTH1 0 -12
BITMAP 
F8
48
40
70
40
48
F8
ENDCHAR
STARTCHAR F
ENCODING 70
SWIDTH 500 0
DWIDTH 6 0
BBX 5 7 0 0
VVECTOR 3 10
SWIDTH1 0 -1000
DWIDTH1 0 -12
BITMAP 
F8
48
40
70
40
40
E0
ENDCHAR
STARTCHAR G
ENCODING 71
SWIDTH 500 0
DWIDTH 6 0
BBX 5 7 0 0
VVECTOR 3 10
SWIDTH1 0 -1000
DWIDTH1 0 -12
BITMAP 
78
88
80
98
88
88
70
ENDCHAR
STARTCHAR H
ENCODING 72
SWIDTH 583 0
DWIDTH 7 0
BBX 6 7 0 0
VVECTOR 3 10
SWIDTH1 0 -1000
DWIDTH1 0 -12
BITMAP 
EC
48
48
78
48
48
EC
ENDCHAR
STARTCHAR I
ENCODING 73
SWIDTH 333 0
DWIDTH 4 0
BBX 3 7 0 0
VVECTOR 2 10
SWIDTH1 0 -1000
DWIDTH1 0 -12
BITMAP 
E0
40
40
40
40
40
E0
ENDCHAR
STARTCHAR J
ENCODING 74
SWIDTH 417 0
DWIDTH 5 0
BBX 4 9 0 -2
VVECTOR 2 10
SWIDTH1 0 -1000
DWIDTH1 0 -12
BITMAP 
70
20
20
20
20
20
20
20
C0
ENDCHAR
STARTCHAR K
ENCODING 75
SWIDTH 583 0
DWIDTH 7 0
BBX 6 7 0 0
VVECTOR 3 10
SWIDTH1 0 -1000
DWIDTH1 0 -12
BITMAP 
EC
48
50
60
50
48
EC
ENDCHAR
STARTCHAR L
ENCODING 76
SWIDTH 500 0
DWIDTH 6 0
BBX 5 7 0 0
VVECTOR 3 10
SWIDTH1 0 -1000
DWIDTH1 0 -12
BITMAP 
E0
40
40
40
40
48
F8
ENDCHAR
STARTCHAR M
ENCODING 77
SWIDTH 667 0
DWIDTH 8 0
BBX 7 7 0 0
VVECTOR 4 10
SWIDTH1 0 -1000
DWIDTH1 0 -12
BITMAP 
C6
6C
54
44
44
44
EE
ENDCHAR
STARTCHAR N
ENCODING 78
SWIDTH 583 0
DWIDTH 7 0
BBX 7 7 0 0
VVECTOR 4 10
SWIDTH1 0 -1000
DWIDTH1 0 -12
BITMAP 
CE
64
64
54
54
4C
EC
ENDCHAR
STARTCHAR O
ENCODING 79
SWIDTH 583 0
DWIDTH 7 0
BBX 5 7 1 0
VVECTOR 4 10
SWIDTH1 0 -1000
DWIDTH1 0 -12
BITMAP 
70
88
88
88
88
88
70
ENDCHAR
STARTCHAR P
ENCODING 80
SWIDTH 500 0
DWIDTH 6 0
BBX 5 7 0 0
VVECTOR 3 10
SWIDTH1 0 -1000
DWIDTH1 0 -12
BITMAP 
F0
48
48
70
40
40
E0
ENDCHAR
STARTCHAR Q
ENCODING 81
SWIDTH 583 0
DWIDTH 7 0
BBX 5 9 1 -2
VVECTOR 4 10
SWIDTH1 0 -1000
DWIDTH1 0 -12
BITMAP 
70
88
88
88
88
88
70
20
10
ENDCHAR
STARTCHAR R
ENCODING 82
SWIDTH 500 0
DWIDTH 6 0
BBX 6 7 0 0
VVECTOR 3 10
SWIDTH1 0 -1000
DWIDTH1 0 -12
BITMAP 
F0
48
48
70
48
48
EC
ENDCHAR
STARTCHAR S
ENCODING 83
SWIDTH 417 0
DWIDTH 5 0
BBX 4 7 0 0
VVECTOR 2 10
SWIDTH1 0 -1000
DWIDTH1 0 -12
BITMAP 
70
90
80
60
10
90
E0
ENDCHAR
STARTCHAR T
ENCODING 84
SWIDTH 500 0
DWIDTH 6 0
BBX 5 7 0 0
VVECTOR 3 10
SWIDTH1 0 -1000
DWIDTH1 0 -12
BITMAP 
F8
A8
20
20
20
20
70
ENDCHAR
STARTCHAR U
ENCODING 85
SWIDTH 583 0
DWIDTH 7 0
BBX 7 7 0 0
VVECTOR 4 10
SWIDTH1 0 -1000
DWIDTH1 0 -12
BITMAP 
EE
44
44
44
44
44
38
ENDCHAR
STARTCHAR V
ENCODING 86
SWIDTH 583 0
DWIDTH 7 0
BBX 7 7 0 0
VVECTOR 4 10
SWIDTH1 0 -1000
DWIDTH1 0 -12
BITMAP 
EE
44
44
28
28
10
10
ENDCHAR
STARTCHAR W
ENCODING 87
SWIDTH 750 0
DWIDTH 9 0
BBX 9 7 0 0
VVECTOR 5 10
SWIDTH1 0 -1000
DWIDTH1 0 -12
BITMAP 
E380
4100
4900
2A00
2A00
1400
1400
ENDCHAR
STARTCHAR X
ENCODING 88
SWIDTH 500 0
DWIDTH 6 0
BBX 5 7 0 0
VVECTOR 3 10
SWIDTH1 0 -1000
DWIDTH1 0 -12
BITMAP 
D8
50
50
20
50
50
D8
ENDCHAR
STARTCHAR Y
ENCODING 89
SWIDTH 500 0
DWIDTH 6 0
BBX 5 7 0 0
VVECTOR 3 10
SWIDTH1 0 -1000
DWIDTH1 0 -12
BITMAP 
D8
50
50
20
20
20
70
ENDCHAR
STARTCHAR Z
ENCODING 90
SWIDTH 417 0
DWIDTH 5 0
BBX 4 7 0 0
VVECTOR 2 10
SWIDTH1 0 -1000
DWIDTH1 0 -12
BITMAP 
F0
90
20
40
80
90
F0
ENDCHAR
STARTCHAR bracketleft
ENCODING 91
SWIDTH 250 0
DWIDTH 3 0
BBX 2 9 0 -1
VVECTOR 1 10
SWIDTH1 0 -1000
DWIDTH1 0 -12
BITMAP 
C0
80
80
80
80
80
80
80
C0
ENDCHAR
STARTCHAR backslash
ENCODING 92
SWIDTH 417 0
DWIDTH 5 0
BBX 4 8 0 0
VVECTOR 2 10
SWIDTH1 0 -1000
DWIDTH1 0 -12
BITMAP 
80
80
40
40
20
20
10
10
ENDCHAR
STARTCHAR bracketright
ENCODING 93
SWIDTH 250 0
DWIDTH 3 0
BBX 2 9 0 -1
VVECTOR 1 10
SWIDTH1 0 -1000
DWIDTH1 0 -12
BITMAP 
C0
40
40
40
40
40
40
40
C0
ENDCHAR
STARTCHAR asciicircum
ENCODING 94
SWIDTH 333 0
DWIDTH 4 0
BBX 3 2 0 5
VVECTOR 2 10
SWIDTH1 0 -1000
DWIDTH1 0 -12
BITMAP 
40
A0
ENDCHAR
STARTCHAR underscore
ENCODING 95
SWIDTH 500 0
DWIDTH 6 0
BBX 6 1 0 0
VVECTOR 3 10
SWIDTH1 0 -1000
DWIDTH1 0 -12
BITMAP 
FC
ENDCHAR
STARTCHAR grave
ENCODING 96
SWIDTH 250 0
DWIDTH 3 0
BBX 2 2 0 5
VVECTOR 1 10
SWIDTH1 0 -1000
DWIDTH1 0 -12
BITMAP 
80
40
ENDCHAR
STARTCHAR a
ENCODING 97
SWIDTH 417 0
DWIDTH 5 0
BBX 4 5 0 0
VVECTOR 2 10
SWIDTH1 0 -1000
DWIDTH1 0 -12
BITMAP 
60
90
70
90
70
ENDCHAR
STARTCHAR b
ENCODING 98
SWIDTH 500 0
DWIDTH 6 0
BBX 5 7 0 0
VVECTOR 3 10
SWIDTH1 0 -1000
DWIDTH1 0 -12
BITMAP 
40
C0
70
48
48
48
B0
ENDCHAR
STARTCHAR c
ENCODING 99
SWIDTH 417 0
DWIDTH 5 0
BBX 4 5 0 0
VVECTOR 2 10
SWIDTH1 0 -1000
DWIDTH1 0 -12
BITMAP 
70
90
80
90
60
ENDCHAR
STARTCHAR d
ENCODING 100
SWIDTH 500 0
DWIDTH 6 0
BBX 5 7 0 0
VVECTOR 3 10
SWIDTH1 0 -1000
DWIDTH1 0 -12
BITMAP 
30
10
70
90
90
98
70
ENDCHAR
STARTCHAR e
ENCODING 101
SWIDTH 417 0
DWIDTH 5 0
BBX 4 5 0 0
VVECTOR 2 10
SWIDTH1 0 -1000
DWIDTH1 0 -12
BITMAP 
60
90
F0
80
60
ENDCHAR
STARTCHAR f
ENCODING 102
SWIDTH 333 0
DWIDTH 4 0
BBX 3 7 0 0
VVECTOR 2 10
SWIDTH1 0 -1000
DWIDTH1 0 -12
BITMAP 
20
40
E0
40
40
40
E0
ENDCHAR
STARTCHAR g
ENCODING 103
SWIDTH 417 0
DWIDTH 5 0
BBX 5 8 0 -2
VVECTOR 3 10
SWIDTH1 0 -1000
DWIDTH1 0 -12
BITMAP 
10
60
90
90
60
F0
88
70
ENDCHAR
STARTCHAR h
ENCODING 104
SWIDTH 500 0
DWIDTH 6 0
BBX 6 7 0 0
VVECTOR 3 10
SWIDTH1 0 -1000
DWIDTH1 0 -12
BITMAP 
40
C0
70
48
48
48
EC
ENDCHAR
STARTCHAR i
ENCODING 105
SWIDTH 333 0
DWIDTH 4 0
BBX 3 7 0 0
VVECTOR 2 10
SWIDTH1 0 -1000
DWIDTH1 0 -12
BITMAP 
40
00
40
C0
40
40
E0
ENDCHAR
STARTCHAR j
ENCODING 106
SWIDTH 250 0
DWIDTH 3 0
BBX 2 9 0 -2
VVECTOR 1 10
SWIDTH1 0 -1000
DWIDTH1 0 -12
BITMAP 
40
00
40
C0
40
40
40
40
80
ENDCHAR
STARTCHAR k
ENCODING 107
SWIDTH 500 0
DWIDTH 6 0
BBX 5 7 0 0
VVECTOR 3 10
SWIDTH1 0 -1000
DWIDTH1 0 -12
BITMAP 
40
C0
58
50
60
50
D8
ENDCHAR
STARTCHAR l
ENCODING 108
SWIDTH 333 0
DWIDTH 4 0
BBX 3 7 0 0
VVECTOR 2 10
SWIDTH1 0 -1000
DWIDTH1 0 -12
BITMAP 
40
C0
40
40
40
40
E0
ENDCHAR
STARTCHAR m
ENCODING 109
SWIDTH 667 0
DWIDTH 8 0
BBX 8 5 0 0
VVECTOR 4 10
SWIDTH1 0 -1000
DWIDTH1 0 -12
BITMAP 
B4
DA
92
92
DB
ENDCHAR
STARTCHAR n
ENCODING 110
SWIDTH 500 0
DWIDTH 6 0
BBX 6 5 0 0
VVECTOR 3 10
SWIDTH1 0 -1000
DWIDTH1 0 -12
BITMAP 
50
E8
48
48
EC
ENDCHAR
STARTCHAR o
ENCODING 111
SWIDTH 417 0
DWIDTH 5 0
BBX 4 5 0 0
VVECTOR 2 10
SWIDTH1 0 -1000
DWIDTH1 0 -12
BITMAP 
60
90
90
90
60
ENDCHAR
STARTCHAR p
ENCODING 112
SWIDTH 500 0
DWIDTH 6 0
BBX 5 7 0 -2
VVECTOR 3 10
SWIDTH1 0 -1000
DWIDTH1 0 -12
BITMAP 
70
C8
48
48
70
40
E0
ENDCHAR
STARTCHAR q
ENCODING 113
SWIDTH 500 0
DWIDTH 6 0
BBX 5 7 0 -2
VVECTOR 3 10
SWIDTH1 0 -1000
DWIDTH1 0 -12
BITMAP 
70
98
90
90
70
10
38
ENDCHAR
STARTCHAR r
ENCODING 114
SWIDTH 417 0
DWIDTH 5 0
BBX 4 5 0 0
VVECTOR 2 10
SWIDTH1 0 -1000
DWIDTH1 0 -12
BITMAP 
B0
40
40
40
E0
ENDCHAR
STARTCHAR s
ENCODING 115
SWIDTH 417 0
DWIDTH 5 0
BBX 4 5 0 0
VVECTOR 2 10
SWIDTH1 0 -1000
DWIDTH1 0 -12
BITMAP 
70
90
60
90
E0
ENDCHAR
STARTCHAR t
ENCODING 116
SWIDTH 333 0
DWIDTH 4 0
BBX 3 7 0 0
VVECTOR 2 10
SWIDTH1 0 -1000
DWIDTH1 0 -12
BITMAP 
40
40
E0
40
40
40
20
ENDCHAR
STARTCHAR u
ENCODING 117
SWIDTH 500 0
DWIDTH 6 0
BBX 5 5 0 0
VVECTOR 3 10
SWIDTH1 0 -1000
DWIDTH1 0 -12
BITMAP 
D8
90
90
90
68
ENDCHAR
STARTCHAR v
ENCODING 118
SWIDTH 417 0
DWIDTH 5 0
BBX 5 5 0 0
VVECTOR 3 10
SWIDTH1 0 -1000
DWIDTH1 0 -12
BITMAP 
D8
50
50
20
20
ENDCHAR
STARTCHAR w
ENCODING 119
SWIDTH 583 0
DWIDTH 7 0
BBX 7 5 0 0
VVECTOR 4 10
SWIDTH1 0 -1000
DWIDTH1 0 -12
BITMAP 
D6
54
54
28
28
ENDCHAR
STARTCHAR x
ENCODING 120
SWIDTH 500 0
DWIDTH 6 0
BBX 5 5 0 0
VVECTOR 3 10
SWIDTH1 0 -1000
DWIDTH1 0 -12
BITMAP 
D8
50
20
50
D8
ENDCHAR
STARTCHAR y
ENCODING 121
SWIDTH 500 0
DWIDTH 6 0
BBX 5 7 0 -2
VVECTOR 3 10
SWIDTH1 0 -1000
DWIDTH1 0 -12
BITMAP 
D8
50
50
20
20
40
40
ENDCHAR
STARTCHAR z
ENCODING 122
SWIDTH 417 0
DWIDTH 5 0
BBX 4 5 0 0
VVECTOR 2 10
SWIDTH1 0 -1000
DWIDTH1 0 -12
BITMAP 
F0
A0
40
90
F0
ENDCHAR
STARTCHAR braceleft
ENCODING 123
SWIDTH 333 0
DWIDTH 4 0
BBX 3 9 0 -1
VVECTOR 2 10
SWIDTH1 0 -1000
DWIDTH1 0 -12
BITMAP 
20
40
40
40
80
40
40
40
20
ENDCHAR
STARTCHAR bar
ENCODING 124
SWIDTH 167 0
DWIDTH 2 0
BBX 1 9 0 -1
VVECTOR 1 10
SWIDTH1 0 -1000
DWIDTH1 0 -12
BITMAP 
80
80
80
80
80
80
80
80
80
ENDCHAR
STARTCHAR braceright
ENCODING 125
SWIDTH 333 0
DWIDTH 4 0
BBX 3 9 0 -1
VVECTOR 2 10
SWIDTH1 0 -1000
DWIDTH1 0 -12
BITMAP 
80
40
40
40
20
40
40
40
80
ENDCHAR
STARTCHAR asciitilde
ENCODING 126
SWIDTH 333 0
DWIDTH 4 0
BBX 4 2 0 5
VVECTOR 2 10
SWIDTH1 0 -1000
DWIDTH1 0 -12
BITMAP 
50
A0
ENDCHAR
STARTCHAR char7F
ENCODING 127
SWIDTH 0 0
DWIDTH 0 0
BBX 0 0 0 -2
VVECTOR 0 -2
SWIDTH1 0 0
DWIDTH1 0 0
BITMAP 
ENDCHAR
STARTCHAR Adieresis
ENCODING 128
SWIDTH 667 0
DWIDTH 8 0
BBX 7 9 0 0
VVECTOR 4 10
SWIDTH1 0 -1000
DWIDTH1 0 -12
BITMAP 
28
00
10
10
28
28
7C
44
EE
ENDCHAR
STARTCHAR Aring
ENCODING 129
SWIDTH 667 0
DWIDTH 8 0
BBX 7 10 0 0
VVECTOR 4 10
SWIDTH1 0 -1000
DWIDTH1 0 -12
BITMAP 
10
28
28
10
10
28
28
7C
44
EE
ENDCHAR
STARTCHAR Ccedilla
ENCODING 130
SWIDTH 500 0
DWIDTH 6 0
BBX 5 9 0 -2
VVECTOR 3 10
SWIDTH1 0 -1000
DWIDTH1 0 -12
BITMAP 
38
48
80
80
80
48
30
10
20
ENDCHAR
STARTCHAR Eacute
ENCODING 131
SWIDTH 500 0
DWIDTH 6 0
BBX 5 9 0 0
VVECTOR 3 10
SWIDTH1 0 -1000
DWIDTH1 0 -12
BITMAP 
10
20
F8
48
40
70
40
48
F8
ENDCHAR
STARTCHAR Ntilde
ENCODING 132
SWIDTH 583 0
DWIDTH 7 0
BBX 7 10 0 0
VVECTOR 4 10
SWIDTH1 0 -1000
DWIDTH1 0 -12
BITMAP 
34
58
00
CE
64
64
54
54
4C
EC
ENDCHAR
STARTCHAR Odieresis
ENCODING 133
SWIDTH 583 0
DWIDTH 7 0
BBX 5 9 1 0
VVECTOR 4 10
SWIDTH1 0 -1000
DWIDTH1 0 -12
BITMAP 
50
00
70
88
88
88
88
88
70
ENDCHAR
STARTCHAR Udieresis
ENCODING 134
SWIDTH 583 0
DWIDTH 7 0
BBX 7 9 0 0
VVECTOR 4 10
SWIDTH1 0 -1000
DWIDTH1 0 -12
BITMAP 
28
00
EE
44
44
44
44
44
38
ENDCHAR
STARTCHAR aacute
ENCODING 135
SWIDTH 417 0
DWIDTH 5 0
BBX 4 8 0 0
VVECTOR 2 10
SWIDTH1 0 -1000
DWIDTH1 0 -12
BITMAP 
20
40
00
60
90
70
90
70
ENDCHAR
STARTCHAR agrave
ENCODING 136
SWIDTH 417 0
DWIDTH 5 0
BBX 4 8 0 0
VVECTOR 2 10
SWIDTH1 0 -1000
DWIDTH1 0 -12
BITMAP 
40
20
00
60
90
70
90
70
ENDCHAR
STARTCHAR acircumflex
ENCODING 137
SWIDTH 417 0
DWIDTH 5 0
BBX 4 8 0 0
VVECTOR 2 10
SWIDTH1 0 -1000
DWIDTH1 0 -12
BITMAP 
20
50
00
60
90
70
90
70
ENDCHAR
STARTCHAR adieresis
ENCODING 138
SWIDTH 417 0
DWIDTH 5 0
BBX 4 7 0 0
VVECTOR 2 10
SWIDTH1 0 -1000
DWIDTH1 0 -12
BITMAP 
90
00
60
90
70
90
70
ENDCHAR
STARTCHAR atilde
ENCODING 139
SWIDTH 417 0
DWIDTH 5 0
BBX 4 8 0 0
VVECTOR 2 10
SWIDTH1 0 -1000
DWIDTH1 0 -12
BITMAP 
50
A0
00
60
90
70
90
70
ENDCHAR
STARTCHAR aring
ENCODING 140
SWIDTH 417 0
DWIDTH 5 0
BBX 4 9 0 0
VVECTOR 2 10
SWIDTH1 0 -1000
DWIDTH1 0 -12
BITMAP 
60
90
60
00
60
90
70
90
70
ENDCHAR
STARTCHAR ccedilla
ENCODING 141
SWIDTH 417 0
DWIDTH 5 0
BBX 4 7 0 -2
VVECTOR 2 10
SWIDTH1 0 -1000
DWIDTH1 0 -12
BITMAP 
70
90
80
90
60
20
40
ENDCHAR
STARTCHAR eacute
ENCODING 142
SWIDTH 417 0
DWIDTH 5 0
BBX 4 8 0 0
VVECTOR 2 10
SWIDTH1 0 -1000
DWIDTH1 0 -12
BITMAP 
20
40
00
60
90
F0
80
60
ENDCHAR
STARTCHAR egrave
ENCODING 143
SWIDTH 417 0
DWIDTH 5 0
BBX 4 8 0 0
VVECTOR 2 10
SWIDTH1 0 -1000
DWIDTH1 0 -12
BITMAP 
40
20
00
60
90
F0
80
60
ENDCHAR
STARTCHAR ecircumflex
ENCODING 144
SWIDTH 417 0
DWIDTH 5 0
BBX 4 8 0 0
VVECTOR 2 10
SWIDTH1 0 -1000
DWIDTH1 0 -12
BITMAP 
40
A0
00
60
90
F0
80
60
ENDCHAR
STARTCHAR edieresis
ENCODING 145
SWIDTH 417 0
DWIDTH 5 0
BBX 4 7 0 0
VVECTOR 2 10
SWIDTH1 0 -1000
DWIDTH1 0 -12
BITMAP 
90
00
60
90
F0
80
60
ENDCHAR
STARTCHAR iacute
ENCODING 146
SWIDTH 333 0
DWIDTH 4 0
BBX 3 8 0 0
VVECTOR 2 10
SWIDTH1 0 -1000
DWIDTH1 0 -12
BITMAP 
40
80
00
40
C0
40
40
E0
ENDCHAR
STARTCHAR igrave
ENCODING 147
SWIDTH 333 0
DWIDTH 4 0
BBX 3 8 0 0
VVECTOR 2 10
SWIDTH1 0 -1000
DWIDTH1 0 -12
BITMAP 
80
40
00
40
C0
40
40
E0
ENDCHAR
STARTCHAR icircumflex
ENCODING 148
SWIDTH 333 0
DWIDTH 4 0
BBX 3 8 0 0
VVECTOR 2 10
SWIDTH1 0 -1000
DWIDTH1 0 -12
BITMAP 
40
A0
00
40
C0
40
40
E0
ENDCHAR
STARTCHAR idieresis
ENCODING 149
SWIDTH 333 0
DWIDTH 4 0
BBX 3 7 0 0
VVECTOR 2 10
SWIDTH1 0 -1000
DWIDTH1 0 -12
BITMAP 
A0
00
40
C0
40
40
E0
ENDCHAR
STARTCHAR ntilde
ENCODING 150
SWIDTH 500 0
DWIDTH 6 0
BBX 6 8 0 0
VVECTOR 3 10
SWIDTH1 0 -1000
DWIDTH1 0 -12
BITMAP 
68
B0
00
50
E8
48
48
EC
ENDCHAR
STARTCHAR oacute
ENCODING 151
SWIDTH 417 0
DWIDTH 5 0
BBX 4 8 0 0
VVECTOR 2 10
SWIDTH1 0 -1000
DWIDTH1 0 -12
BITMAP 
20
40
00
60
90
90
90
60
ENDCHAR
STARTCHAR ograve
ENCODING 152
SWIDTH 417 0
DWIDTH 5 0
BBX 4 8 0 0
VVECTOR 2 10
SWIDTH1 0 -1000
DWIDTH1 0 -12
BITMAP 
40
20
00
60
90
90
90
60
ENDCHAR
STARTCHAR ocircumflex
ENCODING 153
SWIDTH 417 0
DWIDTH 5 0
BBX 4 8 0 0
VVECTOR 2 10
SWIDTH1 0 -1000
DWIDTH1 0 -12
BITMAP 
40
A0
00
60
90
90
90
60
ENDCHAR
STARTCHAR odieresis
ENCODING 154
SWIDTH 417 0
DWIDTH 5 0
BBX 4 7 0 0
VVECTOR 2 10
SWIDTH1 0 -1000
DWIDTH1 0 -12
BITMAP 
90
00
60
90
90
90
60
ENDCHAR
STARTCHAR otilde
ENCODING 155
SWIDTH 417 0
DWIDTH 5 0
BBX 4 8 0 0
VVECTOR 2 10
SWIDTH1 0 -1000
DWIDTH1 0 -12
BITMAP 
50
A0
00
60
90
90
90
60
ENDCHAR
STARTCHAR uacute
ENCODING 156
SWIDTH 500 0
DWIDTH 6 0
BBX 6 8 0 0
VVECTOR 3 10
SWIDTH1 0 -1000
DWIDTH1 0 -12
BITMAP 
08
10
00
D8
48
48
48
34
ENDCHAR
STARTCHAR ugrave
ENCODING 157
SWIDTH 500 0
DWIDTH 6 0
BBX 6 8 0 0
VVECTOR 3 10
SWIDTH1 0 -1000
DWIDTH1 0 -12
BITMAP 
20
10
00
D8
48
48
48
34
ENDCHAR
STARTCHAR ucircumflex
ENCODING 158
SWIDTH 500 0
DWIDTH 6 0
BBX 6 8 0 0
VVECTOR 3 10
SWIDTH1 0 -1000
DWIDTH1 0 -12
BITMAP 
10
28
00
D8
48
48
48
34
ENDCHAR
STARTCHAR udieresis
ENCODING 159
SWIDTH 500 0
DWIDTH 6 0
BBX 6 7 0 0
VVECTOR 3 10
SWIDTH1 0 -1000
DWIDTH1 0 -12
BITMAP 
50
00
D8
48
48
48
34
ENDCHAR
STARTCHAR dagger
ENCODING 160
SWIDTH 333 0
DWIDTH 4 0
BBX 3 4 0 4
VVECTOR 2 10
SWIDTH1 0 -1000
DWIDTH1 0 -12
BITMAP 
40
E0
40
40
ENDCHAR
STARTCHAR degree
ENCODING 161
SWIDTH 333 0
DWIDTH 4 0
BBX 3 4 0 4
VVECTOR 2 10
SWIDTH1 0 -1000
DWIDTH1 0 -12
BITMAP 
40
A0
A0
40
ENDCHAR
STARTCHAR cent
ENCODING 162
SWIDTH 500 0
DWIDTH 6 0
BBX 5 7 0 -1
VVECTOR 3 10
SWIDTH1 0 -1000
DWIDTH1 0 -12
BITMAP 
20
70
A8
A0
A8
70
20
ENDCHAR
STARTCHAR sterling
ENCODING 163
SWIDTH 500 0
DWIDTH 6 0
BBX 5 7 0 0
VVECTOR 3 10
SWIDTH1 0 -1000
DWIDTH1 0 -12
BITMAP 
30
48
40
E0
40
48
F0
ENDCHAR
STARTCHAR section
ENCODING 164
SWIDTH 417 0
DWIDTH 5 0
BBX 4 9 0 -1
VVECTOR 2 10
SWIDTH1 0 -1000
DWIDTH1 0 -12
BITMAP 
60
90
C0
A0
90
50
30
90
60
ENDCHAR
STARTCHAR bullet
ENCODING 165
SWIDTH 333 0
DWIDTH 4 0
BBX 3 3 0 2
VVECTOR 2 10
SWIDTH1 0 -1000
DWIDTH1 0 -12
BITMAP 
E0
E0
E0
ENDCHAR
STARTCHAR paragraph
ENCODING 166
SWIDTH 583 0
DWIDTH 7 0
BBX 5 7 1 0
VVECTOR 4 10
SWIDTH1 0 -1000
DWIDTH1 0 -12
BITMAP 
78
A8
A8
A8
78
28
28
ENDCHAR
STARTCHAR germandbls
ENCODING 167
SWIDTH 417 0
DWIDTH 5 0
BBX 4 7 0 0
VVECTOR 2 10
SWIDTH1 0 -1000
DWIDTH1 0 -12
BITMAP 
60
90
A0
90
90
90
A0
ENDCHAR
STARTCHAR registered
ENCODING 168
SWIDTH 500 0
DWIDTH 6 0
BBX 5 5 0 0
VVECTOR 3 10
SWIDTH1 0 -1000
DWIDTH1 0 -12
BITMAP 
70
88
A8
88
70
ENDCHAR
STARTCHAR copyright
ENCODING 169
SWIDTH 500 0
DWIDTH 6 0
BBX 5 5 0 0
VVECTOR 3 10
SWIDTH1 0 -1000
DWIDTH1 0 -12
BITMAP 
70
88
A8
88
70
ENDCHAR
STARTCHAR trademark
ENCODING 170
SWIDTH 500 0
DWIDTH 6 0
BBX 5 3 0 4
VVECTOR 3 10
SWIDTH1 0 -1000
DWIDTH1 0 -12
BITMAP 
F8
58
58
ENDCHAR
STARTCHAR acute
ENCODING 171
SWIDTH 250 0
DWIDTH 3 0
BBX 2 2 0 5
VVECTOR 1 10
SWIDTH1 0 -1000
DWIDTH1 0 -12
BITMAP 
40
80
ENDCHAR
STARTCHAR dieresis
ENCODING 172
SWIDTH 333 0
DWIDTH 4 0
BBX 3 1 0 6
VVECTOR 2 10
SWIDTH1 0 -1000
DWIDTH1 0 -12
BITMAP 
A0
ENDCHAR
STARTCHAR AE
ENCODING 174
SWIDTH 750 0
DWIDTH 9 0
BBX 8 7 0 0
VVECTOR 4 10
SWIDTH1 0 -1000
DWIDTH1 0 -12
BITMAP 
1F
19
28
2E
78
49
EF
ENDCHAR
STARTCHAR Oslash
ENCODING 175
SWIDTH 583 0
DWIDTH 7 0
BBX 7 7 0 0
VVECTOR 4 10
SWIDTH1 0 -1000
DWIDTH1 0 -12
BITMAP 
3A
44
4C
54
64
44
B8
ENDCHAR
STARTCHAR yen
ENCODING 180
SWIDTH 500 0
DWIDTH 6 0
BBX 5 7 0 0
VVECTOR 3 10
SWIDTH1 0 -1000
DWIDTH1 0 -12
BITMAP 
88
50
F8
20
F8
20
20
ENDCHAR
STARTCHAR ordfeminine
ENCODING 187
SWIDTH 417 0
DWIDTH 5 0
BBX 4 6 0 1
VVECTOR 2 10
SWIDTH1 0 -1000
DWIDTH1 0 -12
BITMAP 
70
90
90
70
00
F0
ENDCHAR
STARTCHAR ordmasculine
ENCODING 188
SWIDTH 417 0
DWIDTH 5 0
BBX 4 6 0 1
VVECTOR 2 10
SWIDTH1 0 -1000
DWIDTH1 0 -12
BITMAP 
60
90
90
60
00
F0
ENDCHAR
STARTCHAR ae
ENCODING 190
SWIDTH 667 0
DWIDTH 8 0
BBX 7 5 0 0
VVECTOR 4 10
SWIDTH1 0 -1000
DWIDTH1 0 -12
BITMAP 
7C
92
7E
90
7C
ENDCHAR
STARTCHAR oslash
ENCODING 191
SWIDTH 417 0
DWIDTH 5 0
BBX 5 5 0 0
VVECTOR 3 10
SWIDTH1 0 -1000
DWIDTH1 0 -12
BITMAP 
68
90
B0
D0
60
ENDCHAR
STARTCHAR questiondown
ENCODING 192
SWIDTH 417 0
DWIDTH 5 0
BBX 4 7 0 0
VVECTOR 2 10
SWIDTH1 0 -1000
DWIDTH1 0 -12
BITMAP 
20
00
20
40
80
90
60
ENDCHAR
STARTCHAR exclamdown
ENCODING 193
SWIDTH 250 0
DWIDTH 3 0
BBX 1 7 1 0
VVECTOR 2 10
SWIDTH1 0 -1000
DWIDTH1 0 -12
BITMAP 
80
00
80
80
80
80
80
ENDCHAR
STARTCHAR guillemotleft
ENCODING 199
SWIDTH 500 0
DWIDTH 6 0
BBX 5 5 0 0
VVECTOR 3 10
SWIDTH1 0 -1000
DWIDTH1 0 -12
BITMAP 
28
50
A0
50
28
ENDCHAR
STARTCHAR guillemotright
ENCODING 200
SWIDTH 500 0
DWIDTH 6 0
BBX 5 5 0 0
VVECTOR 3 10
SWIDTH1 0 -1000
DWIDTH1 0 -12
BITMAP 
A0
50
28
50
A0
ENDCHAR
STARTCHAR ellipsis
ENCODING 201
SWIDTH 667 0
DWIDTH 8 0
BBX 5 1 1 0
VVECTOR 4 10
SWIDTH1 0 -1000
DWIDTH1 0 -12
BITMAP 
A8
ENDCHAR
STARTCHAR uni00A0
ENCODING 202
SWIDTH 500 0
DWIDTH 6 0
BBX 0 0 6 -2
VVECTOR 6 -2
SWIDTH1 0 0
DWIDTH1 0 0
BITMAP 
ENDCHAR
STARTCHAR Agrave
ENCODING 203
SWIDTH 667 0
DWIDTH 8 0
BBX 7 9 0 0
VVECTOR 4 10
SWIDTH1 0 -1000
DWIDTH1 0 -12
BITMAP 
10
08
10
10
28
28
7C
44
EE
ENDCHAR
STARTCHAR Atilde
ENCODING 204
SWIDTH 667 0
DWIDTH 8 0
BBX 7 10 0 0
VVECTOR 4 10
SWIDTH1 0 -1000
DWIDTH1 0 -12
BITMAP 
34
58
00
10
10
28
28
7C
44
EE
ENDCHAR
STARTCHAR Otilde
ENCODING 205
SWIDTH 583 0
DWIDTH 7 0
BBX 5 10 1 0
VVECTOR 4 10
SWIDTH1 0 -1000
DWIDTH1 0 -12
BITMAP 
68
B0
00
70
88
88
88
88
88
70
ENDCHAR
STARTCHAR OE
ENCODING 206
SWIDTH 833 0
DWIDTH 10 0
BBX 8 7 1 0
VVECTOR 5 10
SWIDTH1 0 -1000
DWIDTH1 0 -12
BITMAP 
7F
89
88
8E
88
89
7F
ENDCHAR
STARTCHAR oe
ENCODING 207
SWIDTH 667 0
DWIDTH 8 0
BBX 7 5 0 0
VVECTOR 4 10
SWIDTH1 0 -1000
DWIDTH1 0 -12
BITMAP 
6C
92
9E
90
6C
ENDCHAR
STARTCHAR endash
ENCODING 208
SWIDTH 333 0
DWIDTH 4 0
BBX 3 1 0 2
VVECTOR 2 10
SWIDTH1 0 -1000
DWIDTH1 0 -12
BITMAP 
E0
ENDCHAR
STARTCHAR emdash
ENCODING 209
SWIDTH 417 0
DWIDTH 5 0
BBX 4 1 0 2
VVECTOR 2 10
SWIDTH1 0 -1000
DWIDTH1 0 -12
BITMAP 
F0
ENDCHAR
STARTCHAR quotedblleft
ENCODING 210
SWIDTH 417 0
DWIDTH 5 0
BBX 4 3 0 4
VVECTOR 2 10
SWIDTH1 0 -1000
DWIDTH1 0 -12
BITMAP 
50
A0
A0
ENDCHAR
STARTCHAR quotedblright
ENCODING 211
SWIDTH 417 0
DWIDTH 5 0
BBX 4 3 0 4
VVECTOR 2 10
SWIDTH1 0 -1000
DWIDTH1 0 -12
BITMAP 
50
50
A0
ENDCHAR
STARTCHAR quoteleft
ENCODING 212
SWIDTH 250 0
DWIDTH 3 0
BBX 2 3 0 4
VVECTOR 1 10
SWIDTH1 0 -1000
DWIDTH1 0 -12
BITMAP 
40
80
80
ENDCHAR
STARTCHAR quoteright
ENCODING 213
SWIDTH 250 0
DWIDTH 3 0
BBX 2 3 0 4
VVECTOR 1 10
SWIDTH1 0 -1000
DWIDTH1 0 -12
BITMAP 
40
40
80
ENDCHAR
STARTCHAR lozenge
ENCODING 215
SWIDTH 750 0
DWIDTH 9 0
BBX 7 7 0 0
VVECTOR 4 10
SWIDTH1 0 -1000
DWIDTH1 0 -12
BITMAP 
10
28
44
82
44
28
10
ENDCHAR
STARTCHAR ydieresis
ENCODING 216
SWIDTH 500 0
DWIDTH 6 0
BBX 5 9 0 -2
VVECTOR 3 10
SWIDTH1 0 -1000
DWIDTH1 0 -12
BITMAP 
50
00
D8
50
50
20
20
40
40
ENDCHAR
STARTCHAR Ydieresis
ENCODING 217
SWIDTH 667 0
DWIDTH 8 0
BBX 7 7 0 0
VVECTOR 4 10
SWIDTH1 0 -1000
DWIDTH1 0 -12
BITMAP 
44
EE
FE
FE
7C
38
10
ENDCHAR
STARTCHAR missing
ENCODING -1
SWIDTH 667 0
DWIDTH 8 0
BBX 6 8 1 0
VVECTOR 4 10
SWIDTH1 0 -1000
DWIDTH1 0 -12
BITMAP 
FC
84
84
84
84
84
84
FC
ENDCHAR
ENDFONT
